<svg xmlns="http://www.w3.org/2000/svg" width="805" height="600"><rect width="805" height="600" x="0" y="0" fill="#FFFFFF" id="background"/><g id="viz"><g transform="translate(0,0)"><g transform="translate(10,20)"><g><path fill="#ff7f0e" d="M0,500.5C39.25,500.5,39.25,560,78.5,560C117.75,560,117.75,560,157,560C196.25,560,196.25,500.5,235.5,500.5C274.75,500.5,274.75,443.02399999999994,314,443.02399999999994C353.25,443.02399999999994,353.25,483,392.5,483C471,483,471,499.5,549.5,499.5C628,499.5,628,560,706.5,560C745.75,560,745.75,500.5,785,500.5L785,560C745.75,560,745.75,560,706.5,560C628,560,628,559,549.5,559C471,559,471,560,392.5,560C353.25,560,353.25,520.024,314,520.024C274.75,520.024,274.75,560,235.5,560C196.25,560,196.25,560,157,560C117.75,560,117.75,560,78.5,560C39.25,560,39.25,560,0,560Z"><title>Colectivo/Subte</title></path><path fill="#1f77b4" d="M0,233.976C39.25,233.976,39.25,304.22,78.5,304.22C117.75,304.22,117.75,181.42,157,181.42C196.25,181.42,196.25,46.404,235.5,46.404C274.75,46.404,274.75,521.024,314,521.024C353.25,521.024,353.25,262.76,392.5,262.76C471,262.76,471,560,549.5,560C628,560,628,35.259999999999984,706.5,35.259999999999984C745.75,35.259999999999984,745.75,560,785,560L785,560C745.75,560,745.75,559,706.5,559C628,559,628,560,549.5,560C471,560,471,482,392.5,482C353.25,482,353.25,560,314,560C274.75,560,274.75,499.5,235.5,499.5C196.25,499.5,196.25,559,157,559C117.75,559,117.75,560,78.5,560C39.25,560,39.25,499.5,0,499.5Z"><title>Auto</title></path></g><g id="xAxis" transform="translate(0,560)" fill="none" font-size="10" font-family="sans-serif" text-anchor="middle"><path class="domain" stroke="currentColor" d="M0,0H785"/><g class="tick" opacity="1" transform="translate(0,0)"><line stroke="currentColor" y2="6"/><text fill="currentColor" y="9" dy="0.71em">Fri 12</text></g><g class="tick" opacity="1" transform="translate(78.5,0)"><line stroke="currentColor" y2="6"/><text fill="currentColor" y="9" dy="0.71em">Sat 13</text></g><g class="tick" opacity="1" transform="translate(157,0)"><line stroke="currentColor" y2="6"/><text fill="currentColor" y="9" dy="0.71em">Apr 14</text></g><g class="tick" opacity="1" transform="translate(235.5,0)"><line stroke="currentColor" y2="6"/><text fill="currentColor" y="9" dy="0.71em">Mon 15</text></g><g class="tick" opacity="1" transform="translate(314,0)"><line stroke="currentColor" y2="6"/><text fill="currentColor" y="9" dy="0.71em">Tue 16</text></g><g class="tick" opacity="1" transform="translate(392.5,0)"><line stroke="currentColor" y2="6"/><text fill="currentColor" y="9" dy="0.71em">Wed 17</text></g><g class="tick" opacity="1" transform="translate(471,0)"><line stroke="currentColor" y2="6"/><text fill="currentColor" y="9" dy="0.71em">Thu 18</text></g><g class="tick" opacity="1" transform="translate(549.5,0)"><line stroke="currentColor" y2="6"/><text fill="currentColor" y="9" dy="0.71em">Fri 19</text></g><g class="tick" opacity="1" transform="translate(628,0)"><line stroke="currentColor" y2="6"/><text fill="currentColor" y="9" dy="0.71em">Sat 20</text></g><g class="tick" opacity="1" transform="translate(706.5,0)"><line stroke="currentColor" y2="6"/><text fill="currentColor" y="9" dy="0.71em">Apr 21</text></g><g class="tick" opacity="1" transform="translate(785,0)"><line stroke="currentColor" y2="6"/><text fill="currentColor" y="9" dy="0.71em">Mon 22</text></g></g><text y="556" x="785" text-anchor="end" style="font-family: Arial, sans-serif; font-size: 12px; fill: rgb(123, 123, 123); font-weight: bold;">fecha</text><text x="4" text-anchor="start" dominant-baseline="hanging" style="font-family: Arial, sans-serif; font-size: 12px; fill: rgb(123, 123, 123); font-weight: bold;">Monto/ costo</text><g id="labels"><text x="314" y="481.524" text-anchor="middle" alignment-baseline="middle" style="font-family: Arial, sans-serif; font-size: 10px; fill: black; font-weight: bold;">Colectivo/Subte</text><text x="706.5" y="297.13" text-anchor="middle" alignment-baseline="middle" style="font-family: Arial, sans-serif; font-size: 10px; fill: black; font-weight: bold;">Auto</text></g></g><text x="4" y="4" style="font-family: Arial, sans-serif; font-size: 12px; fill: black; font-weight: bold; dominant-baseline: hanging;"/></g></g></svg>